<?xml version="1.0" encoding="utf-8"?>
<!-- Generator: Adobe Illustrator 19.1.0, SVG Export Plug-In . SVG Version: 6.00 Build 0)  -->
<svg version="1.1"
	 id="Layer_1" sodipodi:docname="zoom_out.svg" inkscape:version="0.91 r13725" xmlns:inkscape="http://www.inkscape.org/namespaces/inkscape" xmlns:cc="http://creativecommons.org/ns#" xmlns:svg="http://www.w3.org/2000/svg" xmlns:sodipodi="http://sodipodi.sourceforge.net/DTD/sodipodi-0.dtd" xmlns:dc="http://purl.org/dc/elements/1.1/" xmlns:rdf="http://www.w3.org/1999/02/22-rdf-syntax-ns#"
	 xmlns="http://www.w3.org/2000/svg" xmlns:xlink="http://www.w3.org/1999/xlink" x="0px" y="0px" viewBox="-205 297 200 200"
	 style="enable-background:new -205 297 200 200;" xml:space="preserve">
<style type="text/css">
	.st0{fill:#D44600;}
	.st1{fill:#FFFFFF;}
</style>
<sodipodi:namedview  inkscape:pageopacity="0" inkscape:current-layer="g4866" inkscape:window-maximized="1" inkscape:window-y="21" inkscape:window-x="53" inkscape:window-height="747" inkscape:window-width="1313" inkscape:pageshadow="2" objecttolerance="10" bordercolor="#666666" id="namedview3432" pagecolor="#ffffff" gridtolerance="10" showgrid="false" guidetolerance="10" borderopacity="1" inkscape:cy="102.49778" inkscape:cx="82.222393" inkscape:zoom="3.055">
	</sodipodi:namedview>
<g id="g4932">
	<path id="path3426" class="st0" d="M-180,297h150c13.8,0,25,11.3,25,25v150c0,13.8-11.3,25-25,25h-150c-13.8,0-25-11.3-25-25V322
		C-205,308.3-193.7,297-180,297z"/>
	<g id="g4866">
		<path id="path3428" class="st1" d="M-33,412h-144c-1.7,0-3-1.3-3-3v-24c0-1.7,1.3-3,3-3h144c1.7,0,3,1.3,3,3v24
			C-30,410.7-31.3,412-33,412z"/>
	</g>
</g>
</svg>
